<svg width="24" height="24" viewBox="0 0 24 24" fill="none" xmlns="http://www.w3.org/2000/svg">
<path d="M9 3H4C3.44772 3 3 3.44772 3 4V9C3 9.55228 3.44772 10 4 10H9C9.55228 10 10 9.55228 10 9V4C10 3.44772 9.55228 3 9 3Z" fill="#0BAB64" stroke="#3A3A3A" stroke-linecap="round" stroke-linejoin="round"/>
<path d="M8.5 5H5.5C5.22386 5 5 5.22386 5 5.5V8.5C5 8.77614 5.22386 9 5.5 9H8.5C8.77614 9 9 8.77614 9 8.5V5.5C9 5.22386 8.77614 5 8.5 5Z" fill="#A8D29F"/>
<path d="M20 3H15C14.4477 3 14 3.44772 14 4V9C14 9.55228 14.4477 10 15 10H20C20.5523 10 21 9.55228 21 9V4C21 3.44772 20.5523 3 20 3Z" fill="#0BAB64" stroke="#3A3A3A" stroke-linecap="round" stroke-linejoin="round"/>
<path d="M19.5 5H16.5C16.2239 5 16 5.22386 16 5.5V8.5C16 8.77614 16.2239 9 16.5 9H19.5C19.7761 9 20 8.77614 20 8.5V5.5C20 5.22386 19.7761 5 19.5 5Z" fill="#A8D29F"/>
<path d="M20 14H15C14.4477 14 14 14.4477 14 15V20C14 20.5523 14.4477 21 15 21H20C20.5523 21 21 20.5523 21 20V15C21 14.4477 20.5523 14 20 14Z" fill="#0BAB64" stroke="#3A3A3A" stroke-linecap="round" stroke-linejoin="round"/>
<path d="M19.5 16H16.5C16.2239 16 16 16.2239 16 16.5V19.5C16 19.7761 16.2239 20 16.5 20H19.5C19.7761 20 20 19.7761 20 19.5V16.5C20 16.2239 19.7761 16 19.5 16Z" fill="#A8D29F"/>
<path d="M9 14H4C3.44772 14 3 14.4477 3 15V20C3 20.5523 3.44772 21 4 21H9C9.55228 21 10 20.5523 10 20V15C10 14.4477 9.55228 14 9 14Z" fill="#0BAB64" stroke="#3A3A3A" stroke-linecap="round" stroke-linejoin="round"/>
<path d="M8.5 16H5.5C5.22386 16 5 16.2239 5 16.5V19.5C5 19.7761 5.22386 20 5.5 20H8.5C8.77614 20 9 19.7761 9 19.5V16.5C9 16.2239 8.77614 16 8.5 16Z" fill="#A8D29F"/>
</svg>
