<svg width="24" height="24" viewBox="0 0 24 24" fill="none" xmlns="http://www.w3.org/2000/svg">
<path d="M3 9L12 2L21 9V20C21 20.5304 20.7893 21.0391 20.4142 21.4142C20.0391 21.7893 19.5304 22 19 22H5C4.46957 22 3.96086 21.7893 3.58579 21.4142C3.21071 21.0391 3 20.5304 3 20V9Z" fill="url(#paint0_linear_280_746)" stroke="#3A3A3A" stroke-linecap="round" stroke-linejoin="round"/>
<path d="M5 9.6L12 4L19 9.6V18.4C19 18.8243 18.8361 19.2313 18.5444 19.5314C18.2527 19.8314 17.857 20 17.4444 20H6.55556C6.143 20 5.74733 19.8314 5.45561 19.5314C5.16389 19.2313 5 18.8243 5 18.4V9.6Z" fill="#A8D29F"/>
<path d="M9 22V12H15V22" fill="white"/>
<path d="M9 22V12H15V22" stroke="#3A3A3A" stroke-linecap="round" stroke-linejoin="round"/>
<defs>
<linearGradient id="paint0_linear_280_746" x1="3" y1="2" x2="20.5" y2="22" gradientUnits="userSpaceOnUse">
<stop stop-color="#0BAB64"/>
<stop offset="1" stop-color="#3BB78F"/>
</linearGradient>
</defs>
</svg>
