<svg width="24" height="24" viewBox="0 0 24 24" fill="none" xmlns="http://www.w3.org/2000/svg">
<path d="M20 21V19C20 17.9391 19.5786 16.9217 18.8284 16.1716C18.0783 15.4214 17.0609 15 16 15H8C6.93913 15 5.92172 15.4214 5.17157 16.1716C4.42143 16.9217 4 17.9391 4 19V21" fill="#0BAB64"/>
<path d="M20 21V19C20 17.9391 19.5786 16.9217 18.8284 16.1716C18.0783 15.4214 17.0609 15 16 15H8C6.93913 15 5.92172 15.4214 5.17157 16.1716C4.42143 16.9217 4 17.9391 4 19V21" stroke="black" stroke-linecap="round" stroke-linejoin="round"/>
<path d="M18 21V19.6667C18 18.9594 17.6839 18.2811 17.1213 17.781C16.5587 17.281 15.7956 17 15 17H9C8.20435 17 7.44129 17.281 6.87868 17.781C6.31607 18.2811 6 18.9594 6 19.6667V21" fill="#A8D29F"/>
<path d="M12 11C14.2091 11 16 9.20914 16 7C16 4.79086 14.2091 3 12 3C9.79086 3 8 4.79086 8 7C8 9.20914 9.79086 11 12 11Z" fill="#0BAB64" stroke="black" stroke-linecap="round" stroke-linejoin="round"/>
<path d="M13 8C14.1046 8 15 7.10457 15 6C15 4.89543 14.1046 4 13 4C11.8954 4 11 4.89543 11 6C11 7.10457 11.8954 8 13 8Z" fill="#A8D29F"/>
</svg>
